<mxfile host="app.diagrams.net" agent="Mozilla/5.0 (Windows NT 10.0; Win64; x64) AppleWebKit/537.36 (KHTML, like Gecko) Chrome/127.0.0.0 Safari/537.36" version="24.7.7">
  <diagram id="R2lEEEUBdFMjLlhIrx00" name="Page-1">
    <mxGraphModel dx="2072" dy="634" grid="1" gridSize="10" guides="1" tooltips="1" connect="1" arrows="1" fold="1" page="1" pageScale="1" pageWidth="850" pageHeight="1100" math="0" shadow="0" extFonts="Permanent Marker^https://fonts.googleapis.com/css?family=Permanent+Marker">
      <root>
        <mxCell id="0" />
        <mxCell id="1" parent="0" />
        <mxCell id="dJolps0Q9v0tlvChTq3d-22" style="edgeStyle=orthogonalEdgeStyle;rounded=0;orthogonalLoop=1;jettySize=auto;html=1;endArrow=none;endFill=0;" edge="1" parent="1">
          <mxGeometry relative="1" as="geometry">
            <mxPoint x="170" y="171" as="sourcePoint" />
            <mxPoint x="270" y="171" as="targetPoint" />
          </mxGeometry>
        </mxCell>
        <mxCell id="dJolps0Q9v0tlvChTq3d-73" style="rounded=0;orthogonalLoop=1;jettySize=auto;html=1;exitX=0;exitY=1;exitDx=0;exitDy=0;entryX=1;entryY=0;entryDx=0;entryDy=0;endArrow=none;endFill=0;" edge="1" parent="1" source="dJolps0Q9v0tlvChTq3d-1" target="dJolps0Q9v0tlvChTq3d-66">
          <mxGeometry relative="1" as="geometry" />
        </mxCell>
        <mxCell id="dJolps0Q9v0tlvChTq3d-74" style="rounded=0;orthogonalLoop=1;jettySize=auto;html=1;exitX=0.75;exitY=1;exitDx=0;exitDy=0;entryX=0.5;entryY=0;entryDx=0;entryDy=0;endArrow=none;endFill=0;" edge="1" parent="1" source="dJolps0Q9v0tlvChTq3d-1" target="dJolps0Q9v0tlvChTq3d-75">
          <mxGeometry relative="1" as="geometry">
            <mxPoint x="190" y="280" as="targetPoint" />
          </mxGeometry>
        </mxCell>
        <mxCell id="dJolps0Q9v0tlvChTq3d-1" value="Solicitante" style="rounded=1;whiteSpace=wrap;html=1;" vertex="1" parent="1">
          <mxGeometry x="50" y="140" width="120" height="60" as="geometry" />
        </mxCell>
        <mxCell id="dJolps0Q9v0tlvChTq3d-36" style="edgeStyle=orthogonalEdgeStyle;rounded=0;orthogonalLoop=1;jettySize=auto;html=1;entryX=0.5;entryY=0;entryDx=0;entryDy=0;" edge="1" parent="1" source="dJolps0Q9v0tlvChTq3d-2" target="dJolps0Q9v0tlvChTq3d-35">
          <mxGeometry relative="1" as="geometry" />
        </mxCell>
        <mxCell id="dJolps0Q9v0tlvChTq3d-2" value="Solicitud" style="rounded=1;whiteSpace=wrap;html=1;" vertex="1" parent="1">
          <mxGeometry x="410" y="140" width="120" height="60" as="geometry" />
        </mxCell>
        <mxCell id="dJolps0Q9v0tlvChTq3d-48" style="rounded=0;orthogonalLoop=1;jettySize=auto;html=1;exitX=0;exitY=1;exitDx=0;exitDy=0;entryX=1;entryY=0.5;entryDx=0;entryDy=0;endArrow=none;endFill=0;" edge="1" parent="1" source="dJolps0Q9v0tlvChTq3d-4" target="dJolps0Q9v0tlvChTq3d-39">
          <mxGeometry relative="1" as="geometry" />
        </mxCell>
        <mxCell id="dJolps0Q9v0tlvChTq3d-49" style="rounded=0;orthogonalLoop=1;jettySize=auto;html=1;exitX=0;exitY=0;exitDx=0;exitDy=0;entryX=1;entryY=0.5;entryDx=0;entryDy=0;endArrow=none;endFill=0;" edge="1" parent="1" source="dJolps0Q9v0tlvChTq3d-4" target="dJolps0Q9v0tlvChTq3d-40">
          <mxGeometry relative="1" as="geometry" />
        </mxCell>
        <mxCell id="dJolps0Q9v0tlvChTq3d-51" style="edgeStyle=orthogonalEdgeStyle;rounded=0;orthogonalLoop=1;jettySize=auto;html=1;exitX=1;exitY=0.5;exitDx=0;exitDy=0;" edge="1" parent="1" source="dJolps0Q9v0tlvChTq3d-4" target="dJolps0Q9v0tlvChTq3d-50">
          <mxGeometry relative="1" as="geometry" />
        </mxCell>
        <mxCell id="dJolps0Q9v0tlvChTq3d-4" value="Mantenimiento" style="rounded=1;whiteSpace=wrap;html=1;" vertex="1" parent="1">
          <mxGeometry x="410" y="450" width="120" height="60" as="geometry" />
        </mxCell>
        <mxCell id="dJolps0Q9v0tlvChTq3d-5" value="Entrega" style="rounded=1;whiteSpace=wrap;html=1;" vertex="1" parent="1">
          <mxGeometry x="930" y="450" width="120" height="60" as="geometry" />
        </mxCell>
        <mxCell id="dJolps0Q9v0tlvChTq3d-16" style="edgeStyle=orthogonalEdgeStyle;rounded=0;orthogonalLoop=1;jettySize=auto;html=1;exitX=1;exitY=0.5;exitDx=0;exitDy=0;endArrow=none;endFill=0;" edge="1" parent="1" source="dJolps0Q9v0tlvChTq3d-8" target="dJolps0Q9v0tlvChTq3d-1">
          <mxGeometry relative="1" as="geometry" />
        </mxCell>
        <mxCell id="dJolps0Q9v0tlvChTq3d-20" style="rounded=0;orthogonalLoop=1;jettySize=auto;html=1;endArrow=none;endFill=0;exitX=0.5;exitY=1;exitDx=0;exitDy=0;" edge="1" parent="1" source="dJolps0Q9v0tlvChTq3d-1" target="dJolps0Q9v0tlvChTq3d-11">
          <mxGeometry relative="1" as="geometry">
            <mxPoint x="50" y="200" as="sourcePoint" />
          </mxGeometry>
        </mxCell>
        <mxCell id="dJolps0Q9v0tlvChTq3d-8" value="TelÃ©fono" style="ellipse;whiteSpace=wrap;html=1;" vertex="1" parent="1">
          <mxGeometry x="-120" y="150" width="90" height="40" as="geometry" />
        </mxCell>
        <mxCell id="dJolps0Q9v0tlvChTq3d-15" style="rounded=0;orthogonalLoop=1;jettySize=auto;html=1;endArrow=none;endFill=0;entryX=0.5;entryY=0;entryDx=0;entryDy=0;" edge="1" parent="1" source="dJolps0Q9v0tlvChTq3d-10" target="dJolps0Q9v0tlvChTq3d-1">
          <mxGeometry relative="1" as="geometry">
            <mxPoint x="133" y="48" as="sourcePoint" />
          </mxGeometry>
        </mxCell>
        <mxCell id="dJolps0Q9v0tlvChTq3d-10" value="Nombre" style="ellipse;whiteSpace=wrap;html=1;" vertex="1" parent="1">
          <mxGeometry x="65" y="20" width="90" height="40" as="geometry" />
        </mxCell>
        <mxCell id="dJolps0Q9v0tlvChTq3d-11" value="Dependencia" style="ellipse;whiteSpace=wrap;html=1;" vertex="1" parent="1">
          <mxGeometry x="10" y="290" width="90" height="40" as="geometry" />
        </mxCell>
        <mxCell id="dJolps0Q9v0tlvChTq3d-23" style="edgeStyle=orthogonalEdgeStyle;rounded=0;orthogonalLoop=1;jettySize=auto;html=1;endArrow=none;endFill=0;" edge="1" parent="1" source="dJolps0Q9v0tlvChTq3d-21" target="dJolps0Q9v0tlvChTq3d-2">
          <mxGeometry relative="1" as="geometry">
            <Array as="points">
              <mxPoint x="360" y="170" />
              <mxPoint x="360" y="170" />
            </Array>
          </mxGeometry>
        </mxCell>
        <mxCell id="dJolps0Q9v0tlvChTq3d-21" value="Realiza" style="rhombus;whiteSpace=wrap;html=1;" vertex="1" parent="1">
          <mxGeometry x="270" y="130" width="80" height="80" as="geometry" />
        </mxCell>
        <mxCell id="dJolps0Q9v0tlvChTq3d-24" value="Hora" style="ellipse;whiteSpace=wrap;html=1;" vertex="1" parent="1">
          <mxGeometry x="450" y="40" width="90" height="40" as="geometry" />
        </mxCell>
        <mxCell id="dJolps0Q9v0tlvChTq3d-26" style="rounded=0;orthogonalLoop=1;jettySize=auto;html=1;exitX=1;exitY=1;exitDx=0;exitDy=0;endArrow=none;endFill=0;" edge="1" parent="1" source="dJolps0Q9v0tlvChTq3d-25" target="dJolps0Q9v0tlvChTq3d-2">
          <mxGeometry relative="1" as="geometry" />
        </mxCell>
        <mxCell id="dJolps0Q9v0tlvChTq3d-25" value="Fecha" style="ellipse;whiteSpace=wrap;html=1;" vertex="1" parent="1">
          <mxGeometry x="350" y="70" width="90" height="40" as="geometry" />
        </mxCell>
        <mxCell id="dJolps0Q9v0tlvChTq3d-29" style="edgeStyle=orthogonalEdgeStyle;rounded=0;orthogonalLoop=1;jettySize=auto;html=1;entryX=0.706;entryY=0.024;entryDx=0;entryDy=0;entryPerimeter=0;endArrow=none;endFill=0;" edge="1" parent="1" source="dJolps0Q9v0tlvChTq3d-24" target="dJolps0Q9v0tlvChTq3d-2">
          <mxGeometry relative="1" as="geometry" />
        </mxCell>
        <mxCell id="dJolps0Q9v0tlvChTq3d-32" style="rounded=0;orthogonalLoop=1;jettySize=auto;html=1;exitX=0;exitY=1;exitDx=0;exitDy=0;entryX=1;entryY=0.25;entryDx=0;entryDy=0;endArrow=none;endFill=0;" edge="1" parent="1" source="dJolps0Q9v0tlvChTq3d-30" target="dJolps0Q9v0tlvChTq3d-2">
          <mxGeometry relative="1" as="geometry" />
        </mxCell>
        <mxCell id="dJolps0Q9v0tlvChTq3d-30" value="Sede" style="ellipse;whiteSpace=wrap;html=1;" vertex="1" parent="1">
          <mxGeometry x="560" y="80" width="90" height="40" as="geometry" />
        </mxCell>
        <mxCell id="dJolps0Q9v0tlvChTq3d-33" style="rounded=0;orthogonalLoop=1;jettySize=auto;html=1;exitX=0;exitY=0.5;exitDx=0;exitDy=0;endArrow=none;endFill=0;" edge="1" parent="1" source="dJolps0Q9v0tlvChTq3d-31">
          <mxGeometry relative="1" as="geometry">
            <mxPoint x="530" y="200" as="targetPoint" />
          </mxGeometry>
        </mxCell>
        <mxCell id="dJolps0Q9v0tlvChTq3d-31" value="Motivo" style="ellipse;whiteSpace=wrap;html=1;" vertex="1" parent="1">
          <mxGeometry x="570" y="190" width="90" height="40" as="geometry" />
        </mxCell>
        <mxCell id="dJolps0Q9v0tlvChTq3d-37" style="edgeStyle=orthogonalEdgeStyle;rounded=0;orthogonalLoop=1;jettySize=auto;html=1;" edge="1" parent="1" source="dJolps0Q9v0tlvChTq3d-35" target="dJolps0Q9v0tlvChTq3d-4">
          <mxGeometry relative="1" as="geometry" />
        </mxCell>
        <mxCell id="dJolps0Q9v0tlvChTq3d-35" value="Genera" style="rhombus;whiteSpace=wrap;html=1;" vertex="1" parent="1">
          <mxGeometry x="435" y="260" width="70" height="70" as="geometry" />
        </mxCell>
        <mxCell id="dJolps0Q9v0tlvChTq3d-47" style="rounded=0;orthogonalLoop=1;jettySize=auto;html=1;exitX=0;exitY=0.5;exitDx=0;exitDy=0;entryX=1;entryY=1;entryDx=0;entryDy=0;endArrow=none;endFill=0;" edge="1" parent="1" source="dJolps0Q9v0tlvChTq3d-38" target="dJolps0Q9v0tlvChTq3d-4">
          <mxGeometry relative="1" as="geometry" />
        </mxCell>
        <mxCell id="dJolps0Q9v0tlvChTq3d-38" value="Enfoque" style="ellipse;whiteSpace=wrap;html=1;" vertex="1" parent="1">
          <mxGeometry x="570" y="520" width="90" height="40" as="geometry" />
        </mxCell>
        <mxCell id="dJolps0Q9v0tlvChTq3d-39" value="Diagnostico" style="ellipse;whiteSpace=wrap;html=1;" vertex="1" parent="1">
          <mxGeometry x="280" y="520" width="90" height="40" as="geometry" />
        </mxCell>
        <mxCell id="dJolps0Q9v0tlvChTq3d-40" value="Fecha" style="ellipse;whiteSpace=wrap;html=1;" vertex="1" parent="1">
          <mxGeometry x="280" y="400" width="90" height="40" as="geometry" />
        </mxCell>
        <mxCell id="dJolps0Q9v0tlvChTq3d-46" style="rounded=0;orthogonalLoop=1;jettySize=auto;html=1;exitX=0;exitY=1;exitDx=0;exitDy=0;entryX=1;entryY=0;entryDx=0;entryDy=0;endArrow=none;endFill=0;" edge="1" parent="1" source="dJolps0Q9v0tlvChTq3d-41" target="dJolps0Q9v0tlvChTq3d-4">
          <mxGeometry relative="1" as="geometry" />
        </mxCell>
        <mxCell id="dJolps0Q9v0tlvChTq3d-41" value="tipo" style="ellipse;whiteSpace=wrap;html=1;" vertex="1" parent="1">
          <mxGeometry x="570" y="400" width="90" height="40" as="geometry" />
        </mxCell>
        <mxCell id="dJolps0Q9v0tlvChTq3d-52" style="edgeStyle=orthogonalEdgeStyle;rounded=0;orthogonalLoop=1;jettySize=auto;html=1;exitX=1;exitY=0.5;exitDx=0;exitDy=0;" edge="1" parent="1" source="dJolps0Q9v0tlvChTq3d-50" target="dJolps0Q9v0tlvChTq3d-5">
          <mxGeometry relative="1" as="geometry" />
        </mxCell>
        <mxCell id="dJolps0Q9v0tlvChTq3d-50" value="Genera" style="rhombus;whiteSpace=wrap;html=1;" vertex="1" parent="1">
          <mxGeometry x="700" y="445" width="70" height="70" as="geometry" />
        </mxCell>
        <mxCell id="dJolps0Q9v0tlvChTq3d-58" style="rounded=0;orthogonalLoop=1;jettySize=auto;html=1;exitX=0;exitY=0.5;exitDx=0;exitDy=0;entryX=1;entryY=0.5;entryDx=0;entryDy=0;endArrow=none;endFill=0;" edge="1" parent="1" source="dJolps0Q9v0tlvChTq3d-53" target="dJolps0Q9v0tlvChTq3d-5">
          <mxGeometry relative="1" as="geometry" />
        </mxCell>
        <mxCell id="dJolps0Q9v0tlvChTq3d-53" value="Firma_Entrega" style="ellipse;whiteSpace=wrap;html=1;" vertex="1" parent="1">
          <mxGeometry x="1120" y="460" width="90" height="40" as="geometry" />
        </mxCell>
        <mxCell id="dJolps0Q9v0tlvChTq3d-59" style="rounded=0;orthogonalLoop=1;jettySize=auto;html=1;exitX=0.5;exitY=0;exitDx=0;exitDy=0;entryX=0.5;entryY=1;entryDx=0;entryDy=0;endArrow=none;endFill=0;" edge="1" parent="1" source="dJolps0Q9v0tlvChTq3d-54" target="dJolps0Q9v0tlvChTq3d-5">
          <mxGeometry relative="1" as="geometry" />
        </mxCell>
        <mxCell id="dJolps0Q9v0tlvChTq3d-54" value="Enfoque" style="ellipse;whiteSpace=wrap;html=1;" vertex="1" parent="1">
          <mxGeometry x="945" y="580" width="90" height="40" as="geometry" />
        </mxCell>
        <mxCell id="dJolps0Q9v0tlvChTq3d-57" style="rounded=0;orthogonalLoop=1;jettySize=auto;html=1;exitX=0.5;exitY=1;exitDx=0;exitDy=0;entryX=0.5;entryY=0;entryDx=0;entryDy=0;endArrow=none;endFill=0;" edge="1" parent="1" source="dJolps0Q9v0tlvChTq3d-55" target="dJolps0Q9v0tlvChTq3d-5">
          <mxGeometry relative="1" as="geometry" />
        </mxCell>
        <mxCell id="dJolps0Q9v0tlvChTq3d-55" value="Firma_TÃ©cnico" style="ellipse;whiteSpace=wrap;html=1;" vertex="1" parent="1">
          <mxGeometry x="945" y="350" width="90" height="40" as="geometry" />
        </mxCell>
        <mxCell id="dJolps0Q9v0tlvChTq3d-60" value="1" style="text;html=1;align=center;verticalAlign=middle;resizable=0;points=[];autosize=1;strokeColor=none;fillColor=none;" vertex="1" parent="1">
          <mxGeometry x="165" y="148" width="30" height="30" as="geometry" />
        </mxCell>
        <mxCell id="dJolps0Q9v0tlvChTq3d-61" value="*" style="text;html=1;align=center;verticalAlign=middle;resizable=0;points=[];autosize=1;strokeColor=none;fillColor=none;" vertex="1" parent="1">
          <mxGeometry x="380" y="148" width="30" height="30" as="geometry" />
        </mxCell>
        <mxCell id="dJolps0Q9v0tlvChTq3d-62" value="1" style="text;html=1;align=center;verticalAlign=middle;resizable=0;points=[];autosize=1;strokeColor=none;fillColor=none;" vertex="1" parent="1">
          <mxGeometry x="445" y="198" width="30" height="30" as="geometry" />
        </mxCell>
        <mxCell id="dJolps0Q9v0tlvChTq3d-63" value="1" style="text;html=1;align=center;verticalAlign=middle;resizable=0;points=[];autosize=1;strokeColor=none;fillColor=none;" vertex="1" parent="1">
          <mxGeometry x="435" y="418" width="30" height="30" as="geometry" />
        </mxCell>
        <mxCell id="dJolps0Q9v0tlvChTq3d-64" value="1" style="text;html=1;align=center;verticalAlign=middle;resizable=0;points=[];autosize=1;strokeColor=none;fillColor=none;" vertex="1" parent="1">
          <mxGeometry x="525" y="458" width="30" height="30" as="geometry" />
        </mxCell>
        <mxCell id="dJolps0Q9v0tlvChTq3d-65" value="1" style="text;html=1;align=center;verticalAlign=middle;resizable=0;points=[];autosize=1;strokeColor=none;fillColor=none;" vertex="1" parent="1">
          <mxGeometry x="895" y="448" width="30" height="30" as="geometry" />
        </mxCell>
        <mxCell id="dJolps0Q9v0tlvChTq3d-66" value="id_solicitante" style="ellipse;whiteSpace=wrap;html=1;" vertex="1" parent="1">
          <mxGeometry x="-70" y="240" width="90" height="40" as="geometry" />
        </mxCell>
        <mxCell id="dJolps0Q9v0tlvChTq3d-67" value="id_solicitud" style="ellipse;whiteSpace=wrap;html=1;" vertex="1" parent="1">
          <mxGeometry x="310" y="210" width="90" height="40" as="geometry" />
        </mxCell>
        <mxCell id="dJolps0Q9v0tlvChTq3d-72" style="rounded=0;orthogonalLoop=1;jettySize=auto;html=1;exitX=0.5;exitY=0;exitDx=0;exitDy=0;endArrow=none;endFill=0;" edge="1" parent="1" source="dJolps0Q9v0tlvChTq3d-68" target="dJolps0Q9v0tlvChTq3d-4">
          <mxGeometry relative="1" as="geometry" />
        </mxCell>
        <mxCell id="dJolps0Q9v0tlvChTq3d-68" value="id_mantenimiento" style="ellipse;whiteSpace=wrap;html=1;" vertex="1" parent="1">
          <mxGeometry x="417.5" y="560" width="105" height="40" as="geometry" />
        </mxCell>
        <mxCell id="dJolps0Q9v0tlvChTq3d-70" style="rounded=0;orthogonalLoop=1;jettySize=auto;html=1;exitX=0;exitY=1;exitDx=0;exitDy=0;entryX=1;entryY=0;entryDx=0;entryDy=0;endArrow=none;endFill=0;" edge="1" parent="1" source="dJolps0Q9v0tlvChTq3d-69" target="dJolps0Q9v0tlvChTq3d-5">
          <mxGeometry relative="1" as="geometry" />
        </mxCell>
        <mxCell id="dJolps0Q9v0tlvChTq3d-69" value="id_entrega" style="ellipse;whiteSpace=wrap;html=1;" vertex="1" parent="1">
          <mxGeometry x="1090" y="378" width="90" height="40" as="geometry" />
        </mxCell>
        <mxCell id="dJolps0Q9v0tlvChTq3d-75" value="ExtensiÃ³n" style="ellipse;whiteSpace=wrap;html=1;" vertex="1" parent="1">
          <mxGeometry x="165" y="290" width="90" height="40" as="geometry" />
        </mxCell>
      </root>
    </mxGraphModel>
  </diagram>
</mxfile>
